<?xml version="1.0" encoding="UTF-8" standalone="no"?><!DOCTYPE svg PUBLIC "-//W3C//DTD SVG 1.1//EN" "http://www.w3.org/Graphics/SVG/1.1/DTD/svg11.dtd"><svg width="100%" height="100%" viewBox="0 0 1334 1334" version="1.1" xmlns="http://www.w3.org/2000/svg" xmlns:xlink="http://www.w3.org/1999/xlink" xml:space="preserve" xmlns:serif="http://www.serif.com/" style="fill-rule:evenodd;clip-rule:evenodd;stroke-linejoin:round;stroke-miterlimit:2;"><rect id="Artboard1" x="0" y="0" width="1333.33" height="1333.33" style="fill:none;"/><g><path d="M1009.86,1051.08l-0,-107.56c-0,-4.763 3.866,-8.63 8.629,-8.63l17.259,0c4.763,0 8.63,3.867 8.63,8.63l-0,81.672l72.124,-0c4.763,-0 8.63,3.866 8.63,8.629l-0,17.259c-0,4.763 -3.867,8.63 -8.63,8.63l-98.013,-0c-4.763,-0 -8.629,-3.867 -8.629,-8.63Z" style="fill:#0d6b58;"/><path d="M450.828,179.901l-0,154.024c-0,24.682 -20.039,44.721 -44.721,44.721c-24.682,-0 -44.721,-20.039 -44.721,-44.721l-0,-154.024c-0,-24.682 20.039,-44.721 44.721,-44.721c24.682,0 44.721,20.039 44.721,44.721Z" style="fill:#0d6b58;"/><path d="M875.983,351.975c-2.441,-5.522 -3.797,-11.629 -3.797,-18.05l-0,-154.024c-0,-24.682 20.038,-44.721 44.72,-44.721c24.683,0 44.721,20.039 44.721,44.721l0,123.391c-13.684,0.743 -28.289,0.995 -48.705,17.146c-2.392,1.893 -4.714,3.848 -7.072,5.772c-10.48,8.185 -20.311,16.773 -29.867,25.765Z" style="fill:#0d6b58;"/><path d="M324.423,934.892l-46.032,0c-7.585,0 -13.743,-6.158 -13.743,-13.743l0,-83.203c0,-7.585 6.158,-13.743 13.743,-13.743l41.099,0c-0.125,0.555 -0.252,1.11 -0.379,1.665c-7.95,34.42 -12.237,63.231 0.786,97.129c1.566,3.994 3.109,7.931 4.526,11.895Z" style="fill:#0d6b58;"/><path d="M333.407,739.165l-50.867,0c-9.875,0 -17.892,-8.017 -17.892,-17.891l0,-108.323c0,-9.875 8.017,-17.892 17.892,-17.892l29.431,0c5.669,19.59 12.362,38.892 19.962,58.385c4.333,10.964 8.389,21.962 12.052,33.18l1.11,3.442l2.774,0c-4.711,11.391 -8.572,23.085 -11.448,35.022l-1.051,4.601c-0.735,3.165 -1.386,6.318 -1.963,9.476Zm707.598,-144.017c9.034,0.9 16.099,8.533 16.099,17.803l0,93.361c-5.03,-9.979 -10.373,-20.045 -16.298,-32.64c-6.332,-12.957 -9.224,-16.191 -6.613,-30.874c3.523,-13.547 5.593,-30.22 6.812,-47.65Z" style="fill:#0d6b58;"/><path d="M481.523,1134.5l-264.539,-0c-51.858,-0 -93.959,-42.102 -93.959,-93.959l-0,-747.753c-0,-51.857 42.101,-93.959 93.959,-93.959l77.467,0c-0,0 -0,-17.504 -0,92.028c-0,62.114 11.133,71.351 11.133,71.351c-0,-0 -16.251,9.142 -15.951,45.808l0.047,4.659c0.081,20.739 -1.04,49.557 0.416,74.831l-132.063,-0l-0,537.196c-0,23.36 23.468,66.074 78.34,66.074l222.962,0c6.346,3.782 11.18,7.804 15.691,14.807c3.366,9.184 5.44,18.937 6.497,28.917Zm-15.052,-705.162c30.848,-19.877 51.292,-32.255 51.292,-120.977l0,-109.532l287.487,0l0,109.532c0,75.559 7.998,74.475 21.536,92.95c-5.22,5.506 -10.331,11.116 -15.251,16.915c-2.461,2.921 -5.015,5.76 -7.569,8.6c-6.263,6.872 -12.445,13.768 -18.35,20.953l-4.576,5.679c-3.212,3.778 -6.344,7.625 -9.418,11.519c-3.767,6.838 -7.384,12.25 -12.664,18.033c-5.701,1.855 -10.255,3.336 -14.146,4.496l-205.716,-0l-4.58,-3.766c-5.477,-4.485 -10.954,-8.981 -16.408,-13.501c-16.822,-13.971 -34.021,-27.7 -51.637,-40.901Zm558.042,-64.046c2.639,-9.512 4.05,-46.584 4.05,-56.931l-0,-109.532l84.162,0c51.858,0 93.959,42.102 93.959,93.959l0,636.23c-9.472,-16.353 -21.296,-31.176 -35.008,-44.007l-0,-397.505l-129.286,-0c-0.894,-23.363 -3.259,-46.472 -7.153,-69.743l-0.971,-5.47c-2.716,-15.393 -5.736,-31.307 -9.753,-47.001Z" style="fill:#0d6b58;"/><path d="M884.391,1134.5l-383.305,-0c-0.821,-11.09 -2.89,-21.959 -6.618,-32.101c-5.521,-8.546 -11.55,-12.433 -20.472,-17.148c-24.215,-13.218 -48.795,-30.024 -68.097,-49.811c-4.549,-4.583 -7.774,-7.686 -14.288,-8.657c-12.931,0.706 -25.088,5.488 -37.202,9.75c-6.47,2.264 -12.985,4.196 -19.577,6.04c-18.22,5.068 -35.799,11.539 -53.444,18.319l-5.875,2.253l-5.245,2.031c-4.185,1.513 -8.27,2.695 -12.599,3.677c39.752,-17.976 80.111,-34.197 122.347,-45.383l5.919,-1.977c-1.16,-6.625 -3.235,-9.783 -7.895,-14.553c-8.702,-9.518 -15.25,-20.174 -22.063,-31.073c-3.047,-5.289 -3.047,-5.289 -5.565,-7.652c-25.286,-3.291 -51.269,-2.628 -76.71,-3.092l-13.317,-0.254c-10.777,-0.21 -21.543,-0.408 -32.32,-0.607c15.039,-1.623 29.858,-2.242 44.975,-2.164l6.415,0.011c6.67,0.011 13.35,0.033 20.02,0.055l13.681,0.033c11.097,0.022 22.206,0.055 33.314,0.088c-1.888,-10.28 -5.554,-19.622 -9.364,-29.306c-12.444,-32.298 -8.347,-59.749 -0.75,-92.544c5.024,-21.919 9.065,-43.407 11.274,-65.8c0.916,-8.768 2.263,-17.259 4.262,-25.839l1.005,-4.384c16.143,-66.816 64.773,-125.638 119.862,-164.948l4.66,-3.39c3.026,-2.186 6.084,-4.339 9.154,-6.481c-3.224,-34.894 -36.814,-69.301 -59.197,-94.72l-2.628,-3.004c-14.388,-16.408 -29.317,-30.123 -46.951,-42.876l-3.512,-2.54c-7,-4.969 -13.957,-9.397 -21.896,-12.754l-3.953,1.977l5.145,3.478c16.365,11.274 31.139,23.476 45.417,37.301c2.33,2.252 4.693,4.461 7.067,6.669c27.119,25.795 53.819,62.145 68.671,96.597l0,5.93c-9.629,-1.094 -16.596,-4.075 -25.165,-8.514c-17.436,-8.646 -38.107,-15.172 -57.718,-15.172l0,3.942l4.351,0.95c21.477,4.991 43.793,11.925 60.765,26.678l1.977,5.929l-7.365,-0.209c-23.222,-0.464 -45.03,0.022 -65.646,12.047c4.317,2.705 4.317,2.705 10.976,0.121c14.454,-3.545 29.504,-2.407 44.279,-2.098c-5.908,7.056 -11.804,13.803 -18.385,20.229c-7.277,7.222 -13.637,14.918 -19.854,23.067l-3.335,4.351c-10.656,14.244 -19.324,29.328 -27.495,45.107l-2.451,4.461c-1.899,3.71 -1.899,3.71 -1.502,9.342l-3.942,-0l-1.06,-3.28c-3.5,-10.688 -7.376,-21.167 -11.517,-31.613c-14.543,-37.19 -25.607,-73.652 -32.309,-113.039l-0.906,-5.311l-0.773,-4.726c-0.651,-3.976 -0.651,-3.976 -2.771,-7.785c-5.687,-27.418 -6.548,-55.487 -6.659,-83.379l-0.044,-4.439c-0.342,-41.718 -0.342,-41.718 10.656,-58.215c24.557,-6.802 57.408,13.913 78.167,25.342c45.88,26.291 88.845,58.49 129.503,92.158c5.212,4.306 10.446,8.591 15.68,12.864l4.902,4.019l4.594,3.755l4.671,4.428c7.773,5.178 14.056,4.328 23.067,2.76c4.384,-0.916 8.734,-1.932 13.096,-2.992c23.222,-5.565 44.754,-8.679 68.704,-7.763l15.15,0.331c7.862,0.188 15.713,0.387 23.564,0.707c29.626,2.849 29.626,2.849 56.724,-5.941c5.046,-5.51 8.502,-10.666 12.102,-17.181c2.937,-3.71 5.93,-7.376 8.999,-10.976l4.373,-5.411c5.643,-6.846 11.55,-13.416 17.535,-19.964c2.44,-2.705 4.881,-5.411 7.233,-8.193c11.152,-13.107 23.332,-25.199 35.489,-37.356c3.799,-3.798 7.575,-7.608 11.351,-11.429c13.825,-13.88 27.816,-26.843 43.286,-38.89c2.252,-1.833 4.505,-3.655 6.758,-5.499c41.927,-33.071 41.927,-33.071 65.833,-32.652c4.373,0.663 4.373,0.663 9.794,4.483c24.205,32.95 33.326,76.125 40.326,115.689l0.928,5.212c4.98,29.67 7.343,59.065 7.222,89.132l-0.012,4.859c-0.077,34.198 -1.06,69.455 -9.728,102.692c-2.495,13.991 1.789,22.67 7.84,35.015c12.279,26.026 21.941,52.848 31.614,79.934c1.745,4.837 3.489,9.662 5.234,14.487c4.638,12.843 9.253,25.674 13.77,38.549l2.252,6.382l2.175,6.272l1.944,5.587c0.344,1.234 0.651,2.477 0.922,3.726c-13.786,-3.162 -28.139,-4.832 -42.879,-4.832c-78.895,-0 -146.699,47.862 -175.936,116.109c-24.919,2.352 -49.656,5.712 -74.261,10.315l-6.404,1.237c-17.458,3.345 -34.441,7 -51.181,13.074c4.991,1.744 8.16,1.932 13.461,1.236l6.515,-1.391l7.453,-1.513c33.482,-6.93 67.247,-11.623 101.167,-14.863c-6.805,18.142 -10.931,37.589 -11.897,57.857c-0.87,-0.086 -1.74,-0.169 -2.611,-0.25c-5.808,-0.485 -11.594,-1.015 -17.391,-1.612c-4.45,-2.23 -4.45,-2.23 -21.047,-3.555l-6.956,-0.519c-19.004,-1.447 -37.798,-2.407 -56.857,-1.844c6.317,4.207 10.535,4.726 17.955,5.388c3.445,0.287 6.901,0.586 10.347,0.906l5.609,0.53c23.592,2.182 47.194,4.968 70.74,8.262c-0.006,0.645 -0.009,1.29 -0.009,1.936c-0,40.842 12.826,78.712 34.668,109.798Zm38.293,-624.104c-17.127,-0.895 -31.415,0.982 -47.316,7.519c-17.955,7.719 -45.372,16.751 -53.323,35.887c5.245,-2.672 10.513,-5.311 15.791,-7.928l7.884,-3.909c23.122,-11.716 45.416,-21.908 70.648,-28.135l6.316,-1.469l-0,-1.965Zm-362.978,445.231c-12.07,-0.177 -20.947,0.872 -31.692,6.658c-1.855,4.318 -1.855,4.318 -1.976,7.895c7.376,4.704 13.946,9.199 19.732,15.791c2.838,5.3 2.838,5.3 5.919,9.871c5.057,1.845 5.057,1.845 9.872,1.966l3.942,-3.942c1.347,-6.99 1.347,-6.99 3.953,-13.814l5.797,-2.595c6.04,-1.358 6.04,-1.358 11.959,-5.3c1.358,-5.179 1.358,-5.179 1.976,-9.872c-8.547,-5.156 -15.084,-6.669 -24.834,-6.724l-4.648,0.066Zm380.745,-595.206l-4.572,3.82c-2.407,2.021 -4.836,4.042 -7.277,6.04c-10.468,8.238 -20.759,16.255 -29.593,26.27c-4.229,4.98 -8.48,9.883 -12.93,14.664c-28.423,30.244 -54.118,63.989 -73.453,100.804l-2.053,4.041c-4.749,9.287 -7.244,17.546 -8.26,27.882l1.966,-0c21.576,-38.802 44.511,-76.048 72.138,-110.864l2.849,-3.588c18.032,-23.112 38.714,-42.965 60.279,-62.687l4.848,-4.417l-3.942,-1.965Zm-487.026,427.144c-21.411,-9.64 -40.503,-7.42 -57.629,8.966c-8.271,13.516 -7.498,28.125 -5.919,43.407c3.931,20.362 12.489,41.596 29.449,54.504l4.097,2.728c8.69,5.852 17.281,10.953 27.815,12.411c19.666,1.38 40.017,0.508 56.094,-12.246c4.727,-6.658 4.727,-6.658 2.275,-23.155l-1.325,-6.614c-0.961,-5.378 -2.109,-10.502 -3.677,-15.735c-10.777,-28.666 -23.122,-50.408 -51.18,-64.266Zm19.334,14.885c4.329,3.644 6.648,7.012 9.872,11.837l0,7.895l-5.929,3.942l1.976,11.849l13.814,1.965c0.585,19.302 0.099,36.263 -9.861,53.29c-3.953,3.942 -3.953,3.942 -8.392,4.185c-10.545,-4.307 -15.249,-13.505 -19.776,-23.575c-7.034,-19.81 -10.093,-44.622 -1.679,-64.487c4.969,-9.573 9.717,-9.916 19.975,-6.901Zm378.559,-233.52l0.331,0.663c0.74,0.276 1.491,0.541 2.253,0.817c6.371,3.655 12.654,7.475 18.827,11.517l4.45,2.959c10.523,6.979 20.34,14.09 29.593,22.692c5.366,5.344 6.25,7.398 13.935,7.398c-15.58,-19.28 -33.667,-36.086 -56.812,-45.704l-2.098,-0.795l-1.071,-3.224l0.784,-1.579c10.479,-3.489 21.058,-5.068 31.768,-5.72c8.359,-0.243 16.74,-0.331 25.154,-0.276l6.228,0.077l0,-1.976c-12.643,-5.102 -26.28,-7.708 -39.619,-6.758c-14.863,0.563 -29.637,4.329 -43.263,10.7l-0,3.953c3.202,1.723 6.382,3.478 9.54,5.256Zm-496.964,393.355l0,5.93c4.406,2.197 4.406,2.197 14.377,3.346l4.307,0.475l9.109,1.026c4.76,0.531 9.53,1.061 14.3,1.602c17.524,1.987 35.048,3.909 52.638,5.388l0,-1.976c-31.536,-7.631 -62.322,-13.77 -94.731,-15.791Zm92.755,47.371c-5.058,-0.132 -9.795,-0.022 -14.797,0.718l-5.101,1.005l-5.566,1.082l-5.742,1.137c-6.702,1.303 -13.405,2.617 -20.107,3.942l-1.966,5.93c5.168,0.155 9.861,-0.011 14.973,-0.917l5.345,-1.247l5.841,-1.347l6.029,-1.425c7.034,-1.634 14.068,-3.279 21.091,-4.936l-0,-3.942Zm121.077,19.677c-4.649,0.056 -4.649,0.056 -9.364,3.898l-4.538,5.4c-5.046,5.863 -9.342,11.274 -12.456,18.385c6.504,-2.175 6.504,-2.175 13.693,-9.993c3.831,-4.395 3.831,-4.395 8.016,-7.774c7.928,0 11.186,1.414 17.911,5.212c18.584,10.7 37.068,20.163 59.042,18.474l0,-1.977c-18.507,-6.106 -36.196,-12.787 -53.278,-22.195c-6.206,-3.533 -12.357,-6.835 -19.026,-9.43Zm265.697,-244.65c-42.535,-26.192 -97.525,-25.298 -132.418,13.085c-18.385,23.012 -26.071,48.232 -23.476,77.693l1.977,1.976l3.699,4.318c16.254,16.077 39.884,23.266 62.278,24.05c27.738,-0.961 54.029,-10.689 74.192,-29.98c17.645,-19.6 24.701,-43.848 24.083,-69.864c-0.872,-10.147 -2.374,-14.498 -10.335,-21.278Zm-90.778,-3.942c5.554,0 5.554,0 11.848,1.977c5.974,5.973 10.844,11.108 11.837,19.732l-7.895,5.919c-0.276,5.764 -0.276,5.764 1.977,11.837c5.013,2.893 10.203,4.472 15.79,5.918c0.961,19.501 2.021,42.689 -10.777,58.91c-3.037,2.264 -3.037,2.264 -8.591,2.518c-10.998,-3.887 -15.448,-11.307 -21.068,-21.201c-9.552,-20.715 -11.484,-46.918 -4.837,-68.837c3.236,-6.614 6.526,-11.572 11.716,-16.773Z" style="fill:#0d6b58;"/><path d="M1041.03,851.255c95.729,-0 173.449,77.72 173.449,173.449c0,95.729 -77.72,173.449 -173.449,173.449c-95.729,-0 -173.449,-77.72 -173.449,-173.449c-0,-95.729 77.72,-173.449 173.449,-173.449Zm0,39.782c-73.773,-0 -133.667,59.894 -133.667,133.667c-0,73.773 59.894,133.667 133.667,133.667c73.773,0 133.667,-59.894 133.667,-133.667c0,-73.773 -59.894,-133.667 -133.667,-133.667Z" style="fill:#0d6b58;"/></g></svg>